<svg width="50" height="50" viewBox="0 0 50 50" fill="none" xmlns="http://www.w3.org/2000/svg">
<g clip-path="url(#clip0_1_94)">
<path d="M25.0017 7.5495L44.6202 27.0482C45.85 28.2788 47.8477 28.2788 49.0776 27.0482C50.3075 25.8177 50.3075 23.8257 49.0776 22.5984L27.2303 0.887373C26.0474 -0.292656 23.9589 -0.298921 22.7698 0.887373L0.922451 22.6015C-0.307422 23.8289 -0.307422 25.824 0.922451 27.0514C2.15233 28.2819 4.15001 28.2819 5.37988 27.0514L25.0017 7.5495L25.0017 7.5495Z" fill="#1E1E1E"/>
<path d="M25.0017 29.5783L44.6201 49.0771C45.85 50.3076 47.8477 50.3076 49.0776 49.0771C50.3074 47.8466 50.3074 45.8546 49.0776 44.6272L27.2303 22.9162C26.0473 21.7362 23.9589 21.7299 22.7697 22.9162L0.922419 44.6272C-0.307455 45.8577 -0.307455 47.8497 0.922419 49.0771C2.1523 50.3076 4.14997 50.3076 5.37985 49.0771L25.0017 29.5783L25.0017 29.5783Z" fill="#1E1E1E"/>
</g>
<defs>
<clipPath id="clip0_1_94">
<rect width="50" height="50" fill="white" transform="translate(50) rotate(90)"/>
</clipPath>
</defs>
</svg>
