<svg width="50" height="50" viewBox="0 0 50 50" fill="none" xmlns="http://www.w3.org/2000/svg">
<path d="M25.0017 42.4505L44.6202 22.9518C45.85 21.7212 47.8477 21.7212 49.0776 22.9518C50.3075 24.1823 50.3075 26.1743 49.0776 27.4016L27.2303 49.1126C26.0474 50.2927 23.9589 50.2989 22.7697 49.1126L0.922453 27.3985C-0.307422 26.1711 -0.307422 24.176 0.922453 22.9486C2.15233 21.7181 4.15001 21.7181 5.37988 22.9486L25.0017 42.4505L25.0017 42.4505Z" fill="#3D44FF"/>
<path d="M25.0017 20.4217L44.6202 0.922901C45.85 -0.307608 47.8477 -0.307608 49.0776 0.922901C50.3075 2.15341 50.3075 4.14542 49.0776 5.37278L27.2303 27.0838C26.0474 28.2638 23.9589 28.2701 22.7697 27.0838L0.922453 5.37278C-0.307422 4.14227 -0.307422 2.15026 0.922453 0.9229C2.15233 -0.307609 4.15001 -0.307609 5.37988 0.9229L25.0017 20.4217L25.0017 20.4217Z" fill="#3D44FF"/>
</svg>
