<svg width="20" height="20" viewBox="0 0 20 20" fill="none" xmlns="http://www.w3.org/2000/svg">
<path d="M16.9802 10.0007L9.1807 17.8481C8.6885 18.34 8.6885 19.1391 9.1807 19.631C9.6729 20.123 10.4697 20.123 10.9607 19.631L19.6451 10.8921C20.1171 10.419 20.1196 9.58356 19.6451 9.1079L10.9594 0.368982C10.4685 -0.122968 9.67039 -0.122968 9.17944 0.368981C8.68724 0.860932 8.68724 1.66 9.17944 2.15195L16.9802 10.0007L16.9802 10.0007Z" fill="#AB1CA4"/>
<path d="M8.16866 10.0007L0.369163 17.848C-0.123041 18.34 -0.123041 19.1391 0.369163 19.631C0.861366 20.123 1.65817 20.123 2.14911 19.631L10.8335 10.8921C11.3055 10.4189 11.308 9.58355 10.8335 9.10789L2.14912 0.368966C1.65691 -0.122984 0.86011 -0.122984 0.369164 0.368966C-0.123039 0.860916 -0.123039 1.65999 0.369164 2.15194L8.16866 10.0007Z" fill="#AB1CA4"/>
</svg>
